<svg xmlns="http://www.w3.org/2000/svg" viewBox="0 0 128 128" width="128" height="128">
  <!-- Background circle -->
  <circle cx="64" cy="64" r="60" fill="#0066cc" stroke="#004499" stroke-width="2"/>
  
  <!-- Search icon -->
  <g transform="translate(64, 64)">
    <!-- Magnifying glass circle -->
    <circle cx="-8" cy="-8" r="18" fill="none" stroke="white" stroke-width="4" stroke-linecap="round"/>
    
    <!-- Magnifying glass handle -->
    <line x1="8" y1="8" x2="20" y2="20" stroke="white" stroke-width="4" stroke-linecap="round"/>
    
    <!-- File/folder icons inside -->
    <g transform="scale(0.6)">
      <!-- Small file icon -->
      <rect x="-25" y="-20" width="12" height="16" rx="1" fill="white" opacity="0.8"/>
      <rect x="-25" y="-18" width="8" height="1" fill="#0066cc"/>
      <rect x="-25" y="-15" width="10" height="1" fill="#0066cc"/>
      <rect x="-25" y="-12" width="6" height="1" fill="#0066cc"/>
      
      <!-- Small folder icon -->
      <path d="M-8,-18 L-8,-10 L8,-10 L8,-6 L-8,-6 L-8,-18 Z M-6,-18 L-2,-18 L0,-16 L4,-16 L4,-10" 
            fill="white" opacity="0.8"/>
    </g>
  </g>
  
  <!-- Small dots pattern for texture -->
  <g opacity="0.1">
    <circle cx="30" cy="30" r="1" fill="white"/>
    <circle cx="98" cy="40" r="1" fill="white"/>
    <circle cx="25" cy="90" r="1" fill="white"/>
    <circle cx="95" cy="85" r="1" fill="white"/>
  </g>
</svg>